<?xml version="1.0" encoding="UTF-8"?>
<svg xmlns="http://www.w3.org/2000/svg" width="1600" height="1100" viewBox="0 0 1600 1100" role="img" aria-labelledby="title desc">
<title>Tirinha em cartoon preto e branco sobre o robô Emmy I e a LPA2v</title>
<desc>Tirinha de quatro quadros baseada no PDF sobre o funcionamento do robô Emmy I, usando LPA2v, graus de evidência, análise paraconsistente e decisão de movimento.</desc>
<style>
  .panel { fill: white; stroke: black; stroke-width: 6; }
  text { fill: black; }
</style>
<rect width="100%" height="100%" fill="white"/>

<rect class="panel" x="30" y="30" width="758.0" height="508.0" rx="14"/>
<rect class="panel" x="812.0" y="30" width="758.0" height="508.0" rx="14"/>
<rect class="panel" x="30" y="562.0" width="758.0" height="508.0" rx="14"/>
<rect class="panel" x="812.0" y="562.0" width="758.0" height="508.0" rx="14"/>
<rect x="52" y="50" width="714.0" height="56.0" rx="12" fill="white" stroke="black" stroke-width="4"/>
<text x="409.0" y="87" font-size="34" font-family="Arial, Helvetica, DejaVu Sans, sans-serif" font-weight="800" font-style="normal" text-anchor="middle" class="">
<tspan x="409.0" dy="0">ROBÔ EMMY I</tspan>
</text>
<ellipse cx="260" cy="477.2" rx="111.6" ry="25.2" fill="white" stroke="black" stroke-width="3.5999999999999996"/>
<rect x="148.4" y="448.4" width="223.2" height="32.4" rx="12.959999999999999" fill="white" stroke="black" stroke-width="3.5999999999999996"/>
<circle cx="206.0" cy="468.56" r="5.76" fill="white" stroke="black" stroke-width="2.88"/>
<circle cx="234.8" cy="468.56" r="5.76" fill="white" stroke="black" stroke-width="2.88"/>
<circle cx="263.6" cy="468.56" r="5.76" fill="white" stroke="black" stroke-width="2.88"/>
<line x1="173.60000000000002" y1="167.60000000000002" x2="173.60000000000002" y2="448.4" stroke="black" stroke-width="4.32" stroke-linecap="round"/>
<line x1="346.4" y1="167.60000000000002" x2="346.4" y2="448.4" stroke="black" stroke-width="4.32" stroke-linecap="round"/>
<rect x="162.8" y="200.0" width="194.4" height="10.08" rx="3.5999999999999996" fill="white" stroke="black" stroke-width="2.88"/>
<circle cx="173.60000000000002" cy="205.04" r="8.64" fill="white" stroke="black" stroke-width="2.88"/>
<circle cx="346.4" cy="205.04" r="8.64" fill="white" stroke="black" stroke-width="2.88"/>
<rect x="162.8" y="282.8" width="194.4" height="10.08" rx="3.5999999999999996" fill="white" stroke="black" stroke-width="2.88"/>
<circle cx="173.60000000000002" cy="287.84000000000003" r="8.64" fill="white" stroke="black" stroke-width="2.88"/>
<circle cx="346.4" cy="287.84000000000003" r="8.64" fill="white" stroke="black" stroke-width="2.88"/>
<rect x="162.8" y="365.6" width="194.4" height="10.08" rx="3.5999999999999996" fill="white" stroke="black" stroke-width="2.88"/>
<circle cx="173.60000000000002" cy="370.64000000000004" r="8.64" fill="white" stroke="black" stroke-width="2.88"/>
<circle cx="346.4" cy="370.64000000000004" r="8.64" fill="white" stroke="black" stroke-width="2.88"/>
<rect x="191.60000000000002" y="176.24" width="57.599999999999994" height="21.599999999999998" fill="white" stroke="black" stroke-width="2.88"/>
<rect x="254.24" y="183.44" width="32.4" height="14.399999999999999" fill="white" stroke="black" stroke-width="2.88"/>
<rect x="292.4" y="185.60000000000002" width="25.2" height="12.24" fill="white" stroke="black" stroke-width="2.88"/>
<circle cx="179.36" cy="153.20000000000002" r="21.599999999999998" fill="white" stroke="black" stroke-width="3.5999999999999996"/>
<line x1="161.36" y1="125.84" x2="158.66000000000003" y2="114.32" stroke="black" stroke-width="2.88" stroke-linecap="round"/>
<line x1="179.36" y1="125.84" x2="179.36" y2="114.32" stroke="black" stroke-width="2.88" stroke-linecap="round"/>
<line x1="197.36" y1="125.84" x2="200.06" y2="114.32" stroke="black" stroke-width="2.88" stroke-linecap="round"/>
<rect x="167.12" y="171.92000000000002" width="24.48" height="18.72" fill="white" stroke="black" stroke-width="2.88"/>
<circle cx="340.64" cy="153.20000000000002" r="21.599999999999998" fill="white" stroke="black" stroke-width="3.5999999999999996"/>
<line x1="322.64" y1="125.84" x2="319.94" y2="114.32" stroke="black" stroke-width="2.88" stroke-linecap="round"/>
<line x1="340.64" y1="125.84" x2="340.64" y2="114.32" stroke="black" stroke-width="2.88" stroke-linecap="round"/>
<line x1="358.64" y1="125.84" x2="361.34" y2="114.32" stroke="black" stroke-width="2.88" stroke-linecap="round"/>
<rect x="328.4" y="171.92000000000002" width="24.48" height="18.72" fill="white" stroke="black" stroke-width="2.88"/>
<rect x="198.8" y="239.6" width="122.39999999999999" height="30.24" rx="5.76" fill="white" stroke="black" stroke-width="2.88"/>
<rect x="209.6" y="243.92000000000002" width="15.84" height="14.399999999999999" fill="white" stroke="black" stroke-width="2.16"/>
<rect x="234.8" y="243.92000000000002" width="15.84" height="14.399999999999999" fill="white" stroke="black" stroke-width="2.16"/>
<rect x="260.0" y="243.92000000000002" width="15.84" height="14.399999999999999" fill="white" stroke="black" stroke-width="2.16"/>
<rect x="285.2" y="243.92000000000002" width="15.84" height="14.399999999999999" fill="white" stroke="black" stroke-width="2.16"/>
<rect x="310.4" y="243.92000000000002" width="15.84" height="14.399999999999999" fill="white" stroke="black" stroke-width="2.16"/>
<path d="M 303.2,200.0 C 353.6,228.8 332.0,282.8 317.6,322.4" fill="none" stroke="black" stroke-width="2.88" stroke-linecap="round"/>
<path d="M 274.4,269.84 C 321.2,297.2 346.4,340.4 310.4,372.8" fill="none" stroke="black" stroke-width="2.88" stroke-linecap="round"/>
<path d="M 206.0,210.8 C 184.4,246.8 195.2,304.4 238.4,365.6" fill="none" stroke="black" stroke-width="2.88" stroke-linecap="round"/>
<rect x="191.60000000000002" y="329.6" width="136.79999999999998" height="30.24" fill="white" stroke="black" stroke-width="2.88"/>
<line x1="202.4" y1="321.68" x2="202.4" y2="329.6" stroke="black" stroke-width="2.88" stroke-linecap="round"/>
<line x1="218.96" y1="321.68" x2="218.96" y2="329.6" stroke="black" stroke-width="2.88" stroke-linecap="round"/>
<line x1="235.52" y1="321.68" x2="235.52" y2="329.6" stroke="black" stroke-width="2.88" stroke-linecap="round"/>
<line x1="252.08" y1="321.68" x2="252.08" y2="329.6" stroke="black" stroke-width="2.88" stroke-linecap="round"/>
<line x1="268.64" y1="321.68" x2="268.64" y2="329.6" stroke="black" stroke-width="2.88" stroke-linecap="round"/>
<line x1="285.2" y1="321.68" x2="285.2" y2="329.6" stroke="black" stroke-width="2.88" stroke-linecap="round"/>
<line x1="301.76" y1="321.68" x2="301.76" y2="329.6" stroke="black" stroke-width="2.88" stroke-linecap="round"/>
<line x1="318.32" y1="321.68" x2="318.32" y2="329.6" stroke="black" stroke-width="2.88" stroke-linecap="round"/>
<rect x="206.0" y="383.6" width="108.0" height="56.16" rx="8.64" fill="white" stroke="black" stroke-width="3.5999999999999996"/>
<rect x="231.2" y="398.0" width="17.28" height="30.24" fill="white" stroke="black" stroke-width="2.88"/>
<rect x="251.36" y="398.0" width="17.28" height="30.24" fill="white" stroke="black" stroke-width="2.88"/>
<rect x="271.52" y="398.0" width="17.28" height="30.24" fill="white" stroke="black" stroke-width="2.88"/>
<rect x="445" y="185" width="300" height="185" rx="28" ry="28" fill="white" stroke="black" stroke-width="4"/>
<path d="M 481.0,370 L 382,280 L 517.0,370 Z" fill="white" stroke="black" stroke-width="4" stroke-linejoin="round"/>
<text x="595.0" y="239.8" font-size="26" font-family="Arial, Helvetica, DejaVu Sans, sans-serif" font-weight="700" font-style="normal" text-anchor="middle" class="">
<tspan x="595.0" dy="0">Sou uma</tspan>
<tspan x="595.0" dy="28.6">aplicação</tspan>
<tspan x="595.0" dy="28.6">concreta</tspan>
<tspan x="595.0" dy="28.6">da LPA2v.</tspan>
</text>
<text x="545" y="420" font-size="23" font-family="Arial, Helvetica, DejaVu Sans, sans-serif" font-weight="700" font-style="normal" text-anchor="middle" class="">
<tspan x="545" dy="0">Decido em ambiente</tspan>
<tspan x="545" dy="27.599999999999998">incerto, com sensores reais.</tspan>
</text>
<rect x="834.0" y="50" width="714.0" height="56.0" rx="12" fill="white" stroke="black" stroke-width="4"/>
<text x="1191.0" y="87" font-size="29" font-family="Arial, Helvetica, DejaVu Sans, sans-serif" font-weight="800" font-style="normal" text-anchor="middle" class="">
<tspan x="1191.0" dy="0">DO SENSOR AO PROBLEMA LÓGICO</tspan>
</text>
<text x="1191.0" y="148" font-size="31" font-family="Arial, Helvetica, DejaVu Sans, sans-serif" font-weight="800" font-style="normal" text-anchor="middle" class="">
<tspan x="1191.0" dy="0">“Existe obstáculo à frente?”</tspan>
</text>
<ellipse cx="1002.0" cy="458.0" rx="85.25" ry="19.25" fill="white" stroke="black" stroke-width="2.75"/>
<rect x="916.75" y="436.0" width="170.5" height="24.750000000000004" rx="9.9" fill="white" stroke="black" stroke-width="2.75"/>
<circle cx="960.75" cy="451.4" r="4.4" fill="white" stroke="black" stroke-width="2.2"/>
<circle cx="982.75" cy="451.4" r="4.4" fill="white" stroke="black" stroke-width="2.2"/>
<circle cx="1004.75" cy="451.4" r="4.4" fill="white" stroke="black" stroke-width="2.2"/>
<line x1="936.0" y1="221.5" x2="936.0" y2="436.0" stroke="black" stroke-width="3.3000000000000003" stroke-linecap="round"/>
<line x1="1068.0" y1="221.5" x2="1068.0" y2="436.0" stroke="black" stroke-width="3.3000000000000003" stroke-linecap="round"/>
<rect x="927.75" y="246.25" width="148.5" height="7.700000000000001" rx="2.75" fill="white" stroke="black" stroke-width="2.2"/>
<circle cx="936.0" cy="250.1" r="6.6000000000000005" fill="white" stroke="black" stroke-width="2.2"/>
<circle cx="1068.0" cy="250.1" r="6.6000000000000005" fill="white" stroke="black" stroke-width="2.2"/>
<rect x="927.75" y="309.5" width="148.5" height="7.700000000000001" rx="2.75" fill="white" stroke="black" stroke-width="2.2"/>
<circle cx="936.0" cy="313.35" r="6.6000000000000005" fill="white" stroke="black" stroke-width="2.2"/>
<circle cx="1068.0" cy="313.35" r="6.6000000000000005" fill="white" stroke="black" stroke-width="2.2"/>
<rect x="927.75" y="372.75" width="148.5" height="7.700000000000001" rx="2.75" fill="white" stroke="black" stroke-width="2.2"/>
<circle cx="936.0" cy="376.6" r="6.6000000000000005" fill="white" stroke="black" stroke-width="2.2"/>
<circle cx="1068.0" cy="376.6" r="6.6000000000000005" fill="white" stroke="black" stroke-width="2.2"/>
<rect x="949.75" y="228.1" width="44.0" height="16.5" fill="white" stroke="black" stroke-width="2.2"/>
<rect x="997.6" y="233.6" width="24.750000000000004" height="11.0" fill="white" stroke="black" stroke-width="2.2"/>
<rect x="1026.75" y="235.25" width="19.25" height="9.350000000000001" fill="white" stroke="black" stroke-width="2.2"/>
<circle cx="940.4" cy="210.5" r="16.5" fill="white" stroke="black" stroke-width="2.75"/>
<line x1="926.65" y1="189.6" x2="924.5875" y2="180.79999999999998" stroke="black" stroke-width="2.2" stroke-linecap="round"/>
<line x1="940.4" y1="189.6" x2="940.4" y2="180.79999999999998" stroke="black" stroke-width="2.2" stroke-linecap="round"/>
<line x1="954.15" y1="189.6" x2="956.2125" y2="180.79999999999998" stroke="black" stroke-width="2.2" stroke-linecap="round"/>
<rect x="931.05" y="224.8" width="18.700000000000003" height="14.3" fill="white" stroke="black" stroke-width="2.2"/>
<circle cx="1063.6" cy="210.5" r="16.5" fill="white" stroke="black" stroke-width="2.75"/>
<line x1="1049.85" y1="189.6" x2="1047.7875" y2="180.79999999999998" stroke="black" stroke-width="2.2" stroke-linecap="round"/>
<line x1="1063.6" y1="189.6" x2="1063.6" y2="180.79999999999998" stroke="black" stroke-width="2.2" stroke-linecap="round"/>
<line x1="1077.35" y1="189.6" x2="1079.4125" y2="180.79999999999998" stroke="black" stroke-width="2.2" stroke-linecap="round"/>
<rect x="1054.25" y="224.8" width="18.700000000000003" height="14.3" fill="white" stroke="black" stroke-width="2.2"/>
<rect x="955.25" y="276.5" width="93.50000000000001" height="23.1" rx="4.4" fill="white" stroke="black" stroke-width="2.2"/>
<rect x="963.5" y="279.8" width="12.100000000000001" height="11.0" fill="white" stroke="black" stroke-width="1.6500000000000001"/>
<rect x="982.75" y="279.8" width="12.100000000000001" height="11.0" fill="white" stroke="black" stroke-width="1.6500000000000001"/>
<rect x="1002.0" y="279.8" width="12.100000000000001" height="11.0" fill="white" stroke="black" stroke-width="1.6500000000000001"/>
<rect x="1021.25" y="279.8" width="12.100000000000001" height="11.0" fill="white" stroke="black" stroke-width="1.6500000000000001"/>
<rect x="1040.5" y="279.8" width="12.100000000000001" height="11.0" fill="white" stroke="black" stroke-width="1.6500000000000001"/>
<path d="M 1035.0,246.25 C 1073.5,268.25 1057.0,309.5 1046.0,339.75" fill="none" stroke="black" stroke-width="2.2" stroke-linecap="round"/>
<path d="M 1013.0,299.6 C 1048.75,320.5 1068.0,353.5 1040.5,378.25" fill="none" stroke="black" stroke-width="2.2" stroke-linecap="round"/>
<path d="M 960.75,254.5 C 944.25,282.0 952.5,326.0 985.5,372.75" fill="none" stroke="black" stroke-width="2.2" stroke-linecap="round"/>
<rect x="949.75" y="345.25" width="104.50000000000001" height="23.1" fill="white" stroke="black" stroke-width="2.2"/>
<line x1="958.0" y1="339.2" x2="958.0" y2="345.25" stroke="black" stroke-width="2.2" stroke-linecap="round"/>
<line x1="970.65" y1="339.2" x2="970.65" y2="345.25" stroke="black" stroke-width="2.2" stroke-linecap="round"/>
<line x1="983.3" y1="339.2" x2="983.3" y2="345.25" stroke="black" stroke-width="2.2" stroke-linecap="round"/>
<line x1="995.95" y1="339.2" x2="995.95" y2="345.25" stroke="black" stroke-width="2.2" stroke-linecap="round"/>
<line x1="1008.6" y1="339.2" x2="1008.6" y2="345.25" stroke="black" stroke-width="2.2" stroke-linecap="round"/>
<line x1="1021.25" y1="339.2" x2="1021.25" y2="345.25" stroke="black" stroke-width="2.2" stroke-linecap="round"/>
<line x1="1033.9" y1="339.2" x2="1033.9" y2="345.25" stroke="black" stroke-width="2.2" stroke-linecap="round"/>
<line x1="1046.55" y1="339.2" x2="1046.55" y2="345.25" stroke="black" stroke-width="2.2" stroke-linecap="round"/>
<rect x="960.75" y="386.5" width="82.5" height="42.900000000000006" rx="6.6000000000000005" fill="white" stroke="black" stroke-width="2.75"/>
<rect x="980.0" y="397.5" width="13.200000000000001" height="23.1" fill="white" stroke="black" stroke-width="2.2"/>
<rect x="995.4" y="397.5" width="13.200000000000001" height="23.1" fill="white" stroke="black" stroke-width="2.2"/>
<rect x="1010.8" y="397.5" width="13.200000000000001" height="23.1" fill="white" stroke="black" stroke-width="2.2"/>
<path d="M 1090.0,301.25 C 1100.395,284.75 1100.395,317.75 1090.0,301.25" fill="none" stroke="black" stroke-width="1.6500000000000001"/>
<path d="M 1090.0,301.25 C 1109.305,284.75 1109.305,317.75 1090.0,301.25" fill="none" stroke="black" stroke-width="1.6500000000000001"/>
<path d="M 1090.0,301.25 C 1117.72,284.75 1117.72,317.75 1090.0,301.25" fill="none" stroke="black" stroke-width="1.6500000000000001"/>
<path d="M 1242.0,240 L 1340.4,219.5 L 1397.8,252.3 L 1393.7,363.0 L 1258.4,379.4 Z" fill="white" stroke="black" stroke-width="4.1" stroke-linejoin="round"/>
<path d="M 1340.4,219.5 L 1336.3,338.4 L 1393.7,363.0" fill="none" stroke="black" stroke-width="3.28"/>
<path d="M 1270.7,268.7 C 1299.4,260.5 1301.04,293.3 1328.1,285.1" fill="none" stroke="black" stroke-width="2.46"/>
<path d="M 1348.6,268.7 L 1365.0,290.84 L 1355.16,315.44" fill="none" stroke="black" stroke-width="2.46"/>
<ellipse cx="1324.0" cy="385.96" rx="98.39999999999999" ry="14.76" fill="none" stroke="black" stroke-width="2.46" stroke-dasharray="7,7"/>
<path d="M 1162.0,293 C 1207.0,260 1222.0,328 1267.0,296" fill="none" stroke="black" stroke-width="4"/>
<path d="M 1192.0,286 C 1232.0,256 1247.0,333 1292.0,306" fill="none" stroke="black" stroke-width="4"/>
<path d="M 1222.0,279 C 1257.0,252 1272.0,338 1317.0,316" fill="none" stroke="black" stroke-width="4"/>
<rect x="1420.0" y="205" width="135" height="86" rx="14" fill="white" stroke="black" stroke-width="4"/>
<text x="1487.0" y="238" font-size="19" font-family="Arial, Helvetica, DejaVu Sans, sans-serif" font-weight="800" font-style="normal" text-anchor="middle" class="">
<tspan x="1487.0" dy="0">μ</tspan>
<tspan x="1487.0" dy="22.8">evidência</tspan>
<tspan x="1487.0" dy="22.8">favorável</tspan>
</text>
<rect x="1420.0" y="335" width="135" height="86" rx="14" fill="white" stroke="black" stroke-width="4"/>
<text x="1487.0" y="368" font-size="19" font-family="Arial, Helvetica, DejaVu Sans, sans-serif" font-weight="800" font-style="normal" text-anchor="middle" class="">
<tspan x="1487.0" dy="0">λ</tspan>
<tspan x="1487.0" dy="22.8">evidência</tspan>
<tspan x="1487.0" dy="22.8">desfavorável</tspan>
</text>
<line x1="1372.0" y1="275" x2="1420.0" y2="248" stroke="black" stroke-width="3" stroke-linecap="round"/><path d="M 1420.0,248 L 1400.280603472557,247.618685702508 L 1410.0858282652082,265.050196444999 Z" fill="black"/>
<line x1="1372.0" y1="310" x2="1420.0" y2="378" stroke="black" stroke-width="3" stroke-linecap="round"/><path d="M 1420.0,378 L 1418.3660642734706,358.34471434851247 L 1402.0267070081752,369.8783783004856 Z" fill="black"/>
<text x="1191.0" y="492" font-size="22" font-family="Arial, Helvetica, DejaVu Sans, sans-serif" font-weight="700" font-style="normal" text-anchor="middle" class="">
<tspan x="1191.0" dy="0">O eco do ultrassom vira graus de evidência,</tspan>
<tspan x="1191.0" dy="26.4">não apenas uma resposta binária.</tspan>
</text>
<rect x="52" y="582.0" width="714.0" height="56.0" rx="12" fill="white" stroke="black" stroke-width="4"/>
<text x="409.0" y="619.0" font-size="29" font-family="Arial, Helvetica, DejaVu Sans, sans-serif" font-weight="800" font-style="normal" text-anchor="middle" class="">
<tspan x="409.0" dy="0">O CONTROLADOR PARACONSISTENTE</tspan>
</text>
<rect x="85" y="692.0" width="170" height="75" rx="14" fill="white" stroke="black" stroke-width="4"/>
<circle cx="116" cy="730.0" r="24" fill="white" stroke="black" stroke-width="4"/><text x="116" y="744.0" font-size="42" font-family="Arial, Helvetica, DejaVu Sans, sans-serif" font-weight="800" text-anchor="middle">+</text>
<text x="185" y="722.0" font-size="21" font-family="Arial, Helvetica, DejaVu Sans, sans-serif" font-weight="800" font-style="normal" text-anchor="middle" class="">
<tspan x="185" dy="0">μ</tspan>
<tspan x="185" dy="25.2">favorável</tspan>
</text>
<rect x="85" y="802.0" width="170" height="75" rx="14" fill="white" stroke="black" stroke-width="4"/>
<circle cx="116" cy="840.0" r="24" fill="white" stroke="black" stroke-width="4"/><text x="116" y="853.0" font-size="42" font-family="Arial, Helvetica, DejaVu Sans, sans-serif" font-weight="800" text-anchor="middle">−</text>
<text x="185" y="832.0" font-size="20" font-family="Arial, Helvetica, DejaVu Sans, sans-serif" font-weight="800" font-style="normal" text-anchor="middle" class="">
<tspan x="185" dy="0">λ</tspan>
<tspan x="185" dy="24.0">desfavorável</tspan>
</text>
<line x1="255" y1="730.0" x2="335" y2="772.0" stroke="black" stroke-width="4" stroke-linecap="round"/><path d="M 335,772.0 L 324.5965746416542,755.2438446887919 L 315.2998966618557,772.9518027455507 Z" fill="black"/>
<line x1="255" y1="840.0" x2="335" y2="812.0" stroke="black" stroke-width="4" stroke-linecap="round"/><path d="M 335,812.0 L 315.65090369449666,808.1773736567177 L 322.2579121890588,827.054540784038 Z" fill="black"/>
<rect x="335" y="677.0" width="385" height="265" rx="18" fill="white" stroke="black" stroke-width="5"/>
<text x="527" y="715.0" font-size="24" font-family="Arial, Helvetica, DejaVu Sans, sans-serif" font-weight="800" font-style="normal" text-anchor="middle" class="">
<tspan x="527" dy="0">ANÁLISE PARACONSISTENTE</tspan>
</text>
<path d="M 445,757.44 L 492.56,805.0 L 445,852.56 L 397.44,805.0 Z" fill="white" stroke="black" stroke-width="2.9"/>
<line x1="421.22" y1="781.22" x2="421.22" y2="828.78" stroke="black" stroke-width="1.7399999999999998"/>
<line x1="421.22" y1="781.22" x2="468.78" y2="781.22" stroke="black" stroke-width="1.7399999999999998"/>
<line x1="445.0" y1="757.44" x2="445.0" y2="852.56" stroke="black" stroke-width="1.7399999999999998"/>
<line x1="397.44" y1="805.0" x2="492.56" y2="805.0" stroke="black" stroke-width="1.7399999999999998"/>
<line x1="468.78" y1="781.22" x2="468.78" y2="828.78" stroke="black" stroke-width="1.7399999999999998"/>
<line x1="421.22" y1="828.78" x2="468.78" y2="828.78" stroke="black" stroke-width="1.7399999999999998"/>
<text x="595" y="772.0" font-size="21" font-family="Arial, Helvetica, DejaVu Sans, sans-serif" font-weight="800" font-style="normal" text-anchor="middle" class="">
<tspan x="595" dy="0">Gc = μ − λ</tspan>
<tspan x="595" dy="25.2">grau de certeza</tspan>
<tspan x="595" dy="25.2"></tspan>
<tspan x="595" dy="25.2">Gct = μ + λ − 1</tspan>
<tspan x="595" dy="25.2">grau de contradição</tspan>
</text>
<text x="409.0" y="970.0" font-size="22" font-family="Arial, Helvetica, DejaVu Sans, sans-serif" font-weight="700" font-style="normal" text-anchor="middle" class="">
<tspan x="409.0" dy="0">O resultado é localizado no reticulado da LPA2v.</tspan>
</text>
<rect x="150" y="987.0" width="518.0" height="72" rx="16" fill="white" stroke="black" stroke-width="4"/>
<rect x="199" y="1002.0" width="72" height="34" rx="8" fill="white" stroke="black" stroke-width="3"/>
<text x="235" y="1027.0" font-size="24" font-family="Arial, Helvetica, DejaVu Sans, sans-serif" font-weight="800" font-style="normal" text-anchor="middle" class="">
<tspan x="235" dy="0">V</tspan>
</text>
<text x="235" y="1054.0" font-size="14" font-family="Arial, Helvetica, DejaVu Sans, sans-serif" font-weight="800" font-style="normal" text-anchor="middle" class="">
<tspan x="235" dy="0">Verdadeiro</tspan>
</text>
<rect x="324" y="1002.0" width="72" height="34" rx="8" fill="white" stroke="black" stroke-width="3"/>
<text x="360" y="1027.0" font-size="24" font-family="Arial, Helvetica, DejaVu Sans, sans-serif" font-weight="800" font-style="normal" text-anchor="middle" class="">
<tspan x="360" dy="0">F</tspan>
</text>
<text x="360" y="1054.0" font-size="14" font-family="Arial, Helvetica, DejaVu Sans, sans-serif" font-weight="800" font-style="normal" text-anchor="middle" class="">
<tspan x="360" dy="0">Falso</tspan>
</text>
<rect x="449" y="1002.0" width="72" height="34" rx="8" fill="white" stroke="black" stroke-width="3"/>
<text x="485" y="1027.0" font-size="24" font-family="Arial, Helvetica, DejaVu Sans, sans-serif" font-weight="800" font-style="normal" text-anchor="middle" class="">
<tspan x="485" dy="0">I</tspan>
</text>
<text x="485" y="1054.0" font-size="14" font-family="Arial, Helvetica, DejaVu Sans, sans-serif" font-weight="800" font-style="normal" text-anchor="middle" class="">
<tspan x="485" dy="0">Inconsistente</tspan>
</text>
<rect x="579" y="1002.0" width="72" height="34" rx="8" fill="white" stroke="black" stroke-width="3"/>
<text x="615" y="1027.0" font-size="24" font-family="Arial, Helvetica, DejaVu Sans, sans-serif" font-weight="800" font-style="normal" text-anchor="middle" class="">
<tspan x="615" dy="0">Ind</tspan>
</text>
<text x="615" y="1054.0" font-size="14" font-family="Arial, Helvetica, DejaVu Sans, sans-serif" font-weight="800" font-style="normal" text-anchor="middle" class="">
<tspan x="615" dy="0">Indefinido</tspan>
</text>
<rect x="834.0" y="582.0" width="714.0" height="56.0" rx="12" fill="white" stroke="black" stroke-width="4"/>
<text x="1191.0" y="619.0" font-size="28" font-family="Arial, Helvetica, DejaVu Sans, sans-serif" font-weight="800" font-style="normal" text-anchor="middle" class="">
<tspan x="1191.0" dy="0">DA CATEGORIA LÓGICA AO MOVIMENTO</tspan>
</text>
<ellipse cx="957.0" cy="952.0" rx="77.5" ry="17.5" fill="white" stroke="black" stroke-width="2.5"/>
<rect x="879.5" y="932.0" width="155.0" height="22.5" rx="9.0" fill="white" stroke="black" stroke-width="2.5"/>
<circle cx="919.5" cy="946.0" r="4.0" fill="white" stroke="black" stroke-width="2.0"/>
<circle cx="939.5" cy="946.0" r="4.0" fill="white" stroke="black" stroke-width="2.0"/>
<circle cx="959.5" cy="946.0" r="4.0" fill="white" stroke="black" stroke-width="2.0"/>
<line x1="897.0" y1="737.0" x2="897.0" y2="932.0" stroke="black" stroke-width="3.0" stroke-linecap="round"/>
<line x1="1017.0" y1="737.0" x2="1017.0" y2="932.0" stroke="black" stroke-width="3.0" stroke-linecap="round"/>
<rect x="889.5" y="759.5" width="135.0" height="7.0" rx="2.5" fill="white" stroke="black" stroke-width="2.0"/>
<circle cx="897.0" cy="763.0" r="6.0" fill="white" stroke="black" stroke-width="2.0"/>
<circle cx="1017.0" cy="763.0" r="6.0" fill="white" stroke="black" stroke-width="2.0"/>
<rect x="889.5" y="817.0" width="135.0" height="7.0" rx="2.5" fill="white" stroke="black" stroke-width="2.0"/>
<circle cx="897.0" cy="820.5" r="6.0" fill="white" stroke="black" stroke-width="2.0"/>
<circle cx="1017.0" cy="820.5" r="6.0" fill="white" stroke="black" stroke-width="2.0"/>
<rect x="889.5" y="874.5" width="135.0" height="7.0" rx="2.5" fill="white" stroke="black" stroke-width="2.0"/>
<circle cx="897.0" cy="878.0" r="6.0" fill="white" stroke="black" stroke-width="2.0"/>
<circle cx="1017.0" cy="878.0" r="6.0" fill="white" stroke="black" stroke-width="2.0"/>
<rect x="909.5" y="743.0" width="40.0" height="15.0" fill="white" stroke="black" stroke-width="2.0"/>
<rect x="953.0" y="748.0" width="22.5" height="10.0" fill="white" stroke="black" stroke-width="2.0"/>
<rect x="979.5" y="749.5" width="17.5" height="8.5" fill="white" stroke="black" stroke-width="2.0"/>
<circle cx="901.0" cy="727.0" r="15.0" fill="white" stroke="black" stroke-width="2.5"/>
<line x1="888.5" y1="708.0" x2="886.625" y2="700.0" stroke="black" stroke-width="2.0" stroke-linecap="round"/>
<line x1="901.0" y1="708.0" x2="901.0" y2="700.0" stroke="black" stroke-width="2.0" stroke-linecap="round"/>
<line x1="913.5" y1="708.0" x2="915.375" y2="700.0" stroke="black" stroke-width="2.0" stroke-linecap="round"/>
<rect x="892.5" y="740.0" width="17.0" height="13.0" fill="white" stroke="black" stroke-width="2.0"/>
<circle cx="1013.0" cy="727.0" r="15.0" fill="white" stroke="black" stroke-width="2.5"/>
<line x1="1000.5" y1="708.0" x2="998.625" y2="700.0" stroke="black" stroke-width="2.0" stroke-linecap="round"/>
<line x1="1013.0" y1="708.0" x2="1013.0" y2="700.0" stroke="black" stroke-width="2.0" stroke-linecap="round"/>
<line x1="1025.5" y1="708.0" x2="1027.375" y2="700.0" stroke="black" stroke-width="2.0" stroke-linecap="round"/>
<rect x="1004.5" y="740.0" width="17.0" height="13.0" fill="white" stroke="black" stroke-width="2.0"/>
<rect x="914.5" y="787.0" width="85.0" height="21.0" rx="4.0" fill="white" stroke="black" stroke-width="2.0"/>
<rect x="922.0" y="790.0" width="11.0" height="10.0" fill="white" stroke="black" stroke-width="1.5"/>
<rect x="939.5" y="790.0" width="11.0" height="10.0" fill="white" stroke="black" stroke-width="1.5"/>
<rect x="957.0" y="790.0" width="11.0" height="10.0" fill="white" stroke="black" stroke-width="1.5"/>
<rect x="974.5" y="790.0" width="11.0" height="10.0" fill="white" stroke="black" stroke-width="1.5"/>
<rect x="992.0" y="790.0" width="11.0" height="10.0" fill="white" stroke="black" stroke-width="1.5"/>
<path d="M 987.0,759.5 C 1022.0,779.5 1007.0,817.0 997.0,844.5" fill="none" stroke="black" stroke-width="2.0" stroke-linecap="round"/>
<path d="M 967.0,808.0 C 999.5,827.0 1017.0,857.0 992.0,879.5" fill="none" stroke="black" stroke-width="2.0" stroke-linecap="round"/>
<path d="M 919.5,767.0 C 904.5,792.0 912.0,832.0 942.0,874.5" fill="none" stroke="black" stroke-width="2.0" stroke-linecap="round"/>
<rect x="909.5" y="849.5" width="95.0" height="21.0" fill="white" stroke="black" stroke-width="2.0"/>
<line x1="917.0" y1="844.0" x2="917.0" y2="849.5" stroke="black" stroke-width="2.0" stroke-linecap="round"/>
<line x1="928.5" y1="844.0" x2="928.5" y2="849.5" stroke="black" stroke-width="2.0" stroke-linecap="round"/>
<line x1="940.0" y1="844.0" x2="940.0" y2="849.5" stroke="black" stroke-width="2.0" stroke-linecap="round"/>
<line x1="951.5" y1="844.0" x2="951.5" y2="849.5" stroke="black" stroke-width="2.0" stroke-linecap="round"/>
<line x1="963.0" y1="844.0" x2="963.0" y2="849.5" stroke="black" stroke-width="2.0" stroke-linecap="round"/>
<line x1="974.5" y1="844.0" x2="974.5" y2="849.5" stroke="black" stroke-width="2.0" stroke-linecap="round"/>
<line x1="986.0" y1="844.0" x2="986.0" y2="849.5" stroke="black" stroke-width="2.0" stroke-linecap="round"/>
<line x1="997.5" y1="844.0" x2="997.5" y2="849.5" stroke="black" stroke-width="2.0" stroke-linecap="round"/>
<rect x="919.5" y="887.0" width="75.0" height="39.0" rx="6.0" fill="white" stroke="black" stroke-width="2.5"/>
<rect x="937.0" y="897.0" width="12.0" height="21.0" fill="white" stroke="black" stroke-width="2.0"/>
<rect x="951.0" y="897.0" width="12.0" height="21.0" fill="white" stroke="black" stroke-width="2.0"/>
<rect x="965.0" y="897.0" width="12.0" height="21.0" fill="white" stroke="black" stroke-width="2.0"/>
<rect x="1157.0" y="687.0" width="170" height="68" rx="14" fill="white" stroke="black" stroke-width="4"/>
<text x="1242.0" y="714.0" font-size="19" font-family="Arial, Helvetica, DejaVu Sans, sans-serif" font-weight="800" font-style="normal" text-anchor="middle" class="">
<tspan x="1242.0" dy="0">Gc alto</tspan>
<tspan x="1242.0" dy="22.8">Gct baixo</tspan>
</text>
<line x1="1327.0" y1="721.0" x2="1365.0" y2="724.0" stroke="black" stroke-width="4" stroke-linecap="round"/><path d="M 1365.0,724.0 L 1348.8397563270912,712.6930762613251 L 1347.265706618691,732.6310392343944 Z" fill="black"/>
<rect x="1377.0" y="690.0" width="160" height="68" rx="14" fill="white" stroke="black" stroke-width="4"/>
<text x="1457.0" y="717.0" font-size="21" font-family="Arial, Helvetica, DejaVu Sans, sans-serif" font-weight="800" font-style="normal" text-anchor="middle" class="">
<tspan x="1457.0" dy="0">AVANÇAR</tspan>
<tspan x="1457.0" dy="25.2">→</tspan>
</text>
<rect x="1157.0" y="787.0" width="170" height="68" rx="14" fill="white" stroke="black" stroke-width="4"/>
<text x="1242.0" y="814.0" font-size="19" font-family="Arial, Helvetica, DejaVu Sans, sans-serif" font-weight="800" font-style="normal" text-anchor="middle" class="">
<tspan x="1242.0" dy="0">Gct alto</tspan>
<tspan x="1242.0" dy="22.8">conflito</tspan>
</text>
<line x1="1327.0" y1="821.0" x2="1365.0" y2="824.0" stroke="black" stroke-width="4" stroke-linecap="round"/><path d="M 1365.0,824.0 L 1348.8397563270912,812.6930762613251 L 1347.265706618691,832.6310392343944 Z" fill="black"/>
<rect x="1377.0" y="790.0" width="160" height="68" rx="14" fill="white" stroke="black" stroke-width="4"/>
<text x="1457.0" y="817.0" font-size="21" font-family="Arial, Helvetica, DejaVu Sans, sans-serif" font-weight="800" font-style="normal" text-anchor="middle" class="">
<tspan x="1457.0" dy="0">MUDAR</tspan>
<tspan x="1457.0" dy="25.2">MANOBRA</tspan>
</text>
<rect x="1157.0" y="887.0" width="170" height="68" rx="14" fill="white" stroke="black" stroke-width="4"/>
<text x="1242.0" y="914.0" font-size="19" font-family="Arial, Helvetica, DejaVu Sans, sans-serif" font-weight="800" font-style="normal" text-anchor="middle" class="">
<tspan x="1242.0" dy="0">Gc baixo</tspan>
<tspan x="1242.0" dy="22.8">incerteza</tspan>
</text>
<line x1="1327.0" y1="921.0" x2="1365.0" y2="924.0" stroke="black" stroke-width="4" stroke-linecap="round"/><path d="M 1365.0,924.0 L 1348.8397563270912,912.6930762613251 L 1347.265706618691,932.6310392343944 Z" fill="black"/>
<rect x="1377.0" y="890.0" width="160" height="68" rx="14" fill="white" stroke="black" stroke-width="4"/>
<text x="1457.0" y="917.0" font-size="21" font-family="Arial, Helvetica, DejaVu Sans, sans-serif" font-weight="800" font-style="normal" text-anchor="middle" class="">
<tspan x="1457.0" dy="0">RECUAR</tspan>
<tspan x="1457.0" dy="25.2">VERIFICAR</tspan>
</text>
<path d="M 1527.0 722.0 l35 0 m-20 -15 l25 15 l-25 15" fill="none" stroke="black" stroke-width="5" stroke-linecap="round" stroke-linejoin="round"/>
<path d="M 1516.0 822.0 q55 -60 108 0" fill="none" stroke="black" stroke-width="5"/><path d="M 1624.0 822.0 l-25 -7 l9 -23" fill="none" stroke="black" stroke-width="5" stroke-linecap="round" stroke-linejoin="round"/>
<path d="M 1550.0 922.0 l-55 0 m18 -16 l-26 16 l26 16" fill="none" stroke="black" stroke-width="5" stroke-linecap="round" stroke-linejoin="round"/>
<rect x="972.0" y="982.0" width="570" height="75" rx="28" ry="28" fill="white" stroke="black" stroke-width="4"/>
<path d="M 1056.6,982.0 L 1142.0,914.0 L 1092.6,982.0 Z" fill="white" stroke="black" stroke-width="4" stroke-linejoin="round"/>
<text x="1257.0" y="1024.5" font-size="25" font-family="Arial, Helvetica, DejaVu Sans, sans-serif" font-weight="700" font-style="normal" text-anchor="middle" class="">
<tspan x="1257.0" dy="0">Contradição não é pane: é informação útil.</tspan>
</text>
<rect x="10" y="10" width="1580" height="1080" fill="none" stroke="black" stroke-width="4"/>
</svg>